<mxfile host="app.diagrams.net" modified="2021-08-03T02:53:03.171Z" agent="5.0 (Macintosh; Intel Mac OS X 10_15_7) AppleWebKit/537.36 (KHTML, like Gecko) Chrome/92.0.4515.107 Safari/537.36" etag="YBpBQpmQwcZH1-IvIojJ" version="14.9.3" type="github">
  <diagram id="pt81wuoub6sBAM-rx7p0" name="Page-1">
    <mxGraphModel dx="1426" dy="794" grid="1" gridSize="10" guides="1" tooltips="1" connect="1" arrows="1" fold="1" page="1" pageScale="1" pageWidth="1200" pageHeight="1600" math="0" shadow="0">
      <root>
        <mxCell id="0" />
        <mxCell id="1" parent="0" />
        <mxCell id="7FeQMlBsuKDe9G1kuXdj-6" value="" style="rounded=0;whiteSpace=wrap;html=1;" vertex="1" parent="1">
          <mxGeometry x="225" y="120" width="320" height="170" as="geometry" />
        </mxCell>
        <mxCell id="7FeQMlBsuKDe9G1kuXdj-1" value="&lt;span&gt;sync chunk&lt;/span&gt;" style="rounded=0;whiteSpace=wrap;html=1;" vertex="1" parent="1">
          <mxGeometry x="260" y="145" width="90" height="50" as="geometry" />
        </mxCell>
        <mxCell id="7FeQMlBsuKDe9G1kuXdj-2" value="sync chunk" style="rounded=0;whiteSpace=wrap;html=1;" vertex="1" parent="1">
          <mxGeometry x="420" y="145" width="90" height="50" as="geometry" />
        </mxCell>
        <mxCell id="7FeQMlBsuKDe9G1kuXdj-3" value="&lt;span&gt;sync chunk&lt;/span&gt;" style="rounded=0;whiteSpace=wrap;html=1;" vertex="1" parent="1">
          <mxGeometry x="260" y="215" width="90" height="50" as="geometry" />
        </mxCell>
        <mxCell id="7FeQMlBsuKDe9G1kuXdj-4" value="async chunk" style="rounded=0;whiteSpace=wrap;html=1;dashed=1;" vertex="1" parent="1">
          <mxGeometry x="420" y="215" width="90" height="50" as="geometry" />
        </mxCell>
        <mxCell id="7FeQMlBsuKDe9G1kuXdj-9" value="app1" style="text;html=1;strokeColor=none;fillColor=none;align=center;verticalAlign=middle;whiteSpace=wrap;rounded=0;dashed=1;" vertex="1" parent="1">
          <mxGeometry x="365" y="195" width="40" height="20" as="geometry" />
        </mxCell>
        <mxCell id="7FeQMlBsuKDe9G1kuXdj-12" value="" style="rounded=0;whiteSpace=wrap;html=1;" vertex="1" parent="1">
          <mxGeometry x="655" y="120" width="320" height="170" as="geometry" />
        </mxCell>
        <mxCell id="7FeQMlBsuKDe9G1kuXdj-13" value="&lt;span&gt;sync chunk&lt;/span&gt;" style="rounded=0;whiteSpace=wrap;html=1;" vertex="1" parent="1">
          <mxGeometry x="690" y="145" width="90" height="50" as="geometry" />
        </mxCell>
        <mxCell id="7FeQMlBsuKDe9G1kuXdj-14" value="sync chunk" style="rounded=0;whiteSpace=wrap;html=1;" vertex="1" parent="1">
          <mxGeometry x="850" y="145" width="90" height="50" as="geometry" />
        </mxCell>
        <mxCell id="7FeQMlBsuKDe9G1kuXdj-15" value="&lt;span&gt;sync chunk&lt;/span&gt;" style="rounded=0;whiteSpace=wrap;html=1;" vertex="1" parent="1">
          <mxGeometry x="690" y="215" width="90" height="50" as="geometry" />
        </mxCell>
        <mxCell id="7FeQMlBsuKDe9G1kuXdj-16" value="async chunk" style="rounded=0;whiteSpace=wrap;html=1;dashed=1;" vertex="1" parent="1">
          <mxGeometry x="850" y="215" width="90" height="50" as="geometry" />
        </mxCell>
        <mxCell id="7FeQMlBsuKDe9G1kuXdj-17" value="app2" style="text;html=1;strokeColor=none;fillColor=none;align=center;verticalAlign=middle;whiteSpace=wrap;rounded=0;dashed=1;" vertex="1" parent="1">
          <mxGeometry x="795" y="195" width="40" height="20" as="geometry" />
        </mxCell>
      </root>
    </mxGraphModel>
  </diagram>
</mxfile>
